# xmcd CD database file
#
# Track frame offsets:
#	150
#	70096
#	82407
#	95691
#	106374
#	122671
#	137550
#	184505
#	266131
#
# Disc length: 3945 seconds
#
# Revision: 3
# Processed by: cddbd v1.5.2PL0 Copyright (c) Steve Scherf et al.
# Submitted via: CDex 1.51
#
DISCID=800f6709
DTITLE=John Cage - Dream  (Stefano Scodanibbio)
DYEAR=2005
DGENRE=Contemporain
TTITLE0=Concert for Piano and Orchestra  [1957-58]
TTITLE1=Freeman Etude N°1  [1977-1980]
TTITLE2=Freeman Etude N°2
TTITLE3=Freeman Etude N°3
TTITLE4=Freeman Etude N°4
TTITLE5=Freeman Etude N°5
TTITLE6=Dream  [1948] - Version for piano and contrebass by Stefano Scodanibbio
TTITLE7=Ryoanji  [1985]  for contrebass and tape
TTITLE8=Radio Music  [1956]  for 5 radio performers
EXTD=YEAR: 2005
EXTT0=
EXTT1=
EXTT2=
EXTT3=
EXTT4=
EXTT5=
EXTT6=
EXTT7=
EXTT8=
PLAYORDER=
